<svg width="20" height="16" viewBox="0 0 20 16" fill="none" xmlns="http://www.w3.org/2000/svg">
<path d="M11.7168 6.90817L10.0002 6.12484L11.7168 5.3415L12.5002 3.62484L13.2835 5.3415L15.0002 6.12484L13.2835 6.90817L12.5002 8.62484L11.7168 6.90817ZM3.3335 10.2915L4.11683 8.57484L5.8335 7.7915L4.11683 7.00817L3.3335 5.2915L2.55016 7.00817L0.833496 7.7915L2.55016 8.57484L3.3335 10.2915ZM7.0835 6.12484L7.99183 4.1165L10.0002 3.20817L7.99183 2.29984L7.0835 0.291504L6.17516 2.29984L4.16683 3.20817L6.17516 4.1165L7.0835 6.12484ZM3.75016 15.7082L8.75016 10.6998L12.0835 14.0332L19.1668 6.0665L17.9918 4.8915L12.0835 11.5332L8.75016 8.19984L2.50016 14.4582L3.75016 15.7082Z" fill="#1A1A1A"/>
</svg>
